<?xml version="1.0" encoding="UTF-8" standalone="no"?>
<!DOCTYPE svg PUBLIC "-//W3C//DTD SVG 1.1//EN" "http://www.w3.org/Graphics/SVG/1.1/DTD/svg11.dtd">
<svg width="100%" height="100%" viewBox="0 0 1154 485" version="1.1" xmlns="http://www.w3.org/2000/svg" xmlns:xlink="http://www.w3.org/1999/xlink" xml:space="preserve" xmlns:serif="http://www.serif.com/" style="fill-rule:evenodd;clip-rule:evenodd;stroke-linejoin:round;stroke-miterlimit:2;">
    <g transform="matrix(1,0,0,1,-420,-528)">
        <g id="Logo" transform="matrix(1.50036,0,0,1.12052,-162.595,518.638)">
            <rect x="388.331" y="9.097" width="768.56" height="432.01" style="fill:none;"/>
            <g transform="matrix(1.4965,0,0,2.00428,-142.112,-319.895)">
                <g transform="matrix(0.445379,0,0,0.445271,329.052,103.218)">
                    <path d="M146.706,443.673C148.915,445.907 151.678,447.03 155.003,447.03C158.164,447.03 160.933,445.853 163.303,443.482C165.674,441.111 166.851,438.341 166.851,435.18C166.851,435.18 166.851,415.044 166.851,415.044C183.852,371.409 184.02,296.652 180.684,278.124C180.3,275.993 179.836,274.553 179.384,273.893C179.075,273.441 178.721,273.219 178.38,273.142C179.145,265.472 174.842,259.5 168.478,255.876C158.448,250.163 143.289,250.428 135.364,259.076C130.365,264.531 128.152,273.351 132.046,286.196C131.855,286.138 131.678,286.097 131.513,286.071C130.864,285.968 130.349,286.079 129.943,286.323C129.338,286.687 128.906,287.422 128.814,288.606C128.704,290.033 129.058,292.298 129.707,295.298C131.155,302 134.045,312.546 135.859,325.746C138.388,344.148 141.496,366.436 143.155,387.134L143.155,431.952C142.377,437.184 141.182,441.583 139.442,444.857C129.024,447.777 116.182,443.336 100.283,428.39C99.914,428.043 99.338,428.047 98.974,428.398C98.609,428.749 98.584,429.325 98.916,429.706C110.182,442.64 118.931,449.569 125.602,451.919C129.153,453.171 132.161,453.16 134.689,452.135C137.117,451.15 139.122,449.216 140.727,446.456C142.813,445.798 144.805,444.862 146.706,443.673ZM144.105,387.095C142.445,366.369 139.333,344.046 136.8,325.616C133.089,298.616 124.897,282.689 133.628,287.999C117.021,239.652 185.124,246.828 176.804,276.327C182.113,257.503 187.153,360.556 165.901,414.865L165.901,435.18C165.901,438.086 164.811,440.63 162.632,442.81C160.452,444.99 157.909,446.08 155.003,446.08C151.855,446.08 149.252,444.99 147.193,442.81C147.079,442.689 146.968,442.567 146.86,442.444C154.794,437.17 161.038,427.293 165.901,414.865L165.901,268.04C165.901,265.133 164.872,262.59 162.813,260.41C160.755,258.23 158.151,257.14 155.003,257.14C151.855,257.14 149.252,258.23 147.193,260.41C145.135,262.59 144.105,265.133 144.105,268.04L144.105,387.095C145.474,404.187 145.855,420.19 144.105,432.023L144.105,435.18C144.105,437.925 145.024,440.346 146.86,442.444C144.726,443.862 142.47,444.948 140.087,445.66C134.021,456.558 121.852,454.59 99.633,429.082C116.074,444.538 129.374,448.861 140.087,445.66C141.98,442.257 143.28,437.602 144.105,432.023L144.105,387.095ZM147.045,441.165C154.47,435.896 160.326,426.451 164.951,414.685L164.951,268.04C164.951,265.381 164.005,263.056 162.122,261.062C160.247,259.076 157.872,258.09 155.003,258.09C152.135,258.09 149.759,259.076 147.884,261.062C146.001,263.056 145.055,265.381 145.055,268.04C145.055,268.04 145.055,387.058 145.055,387.058C146.426,404.183 146.8,420.219 145.055,432.092C145.055,432.092 145.055,435.18 145.055,435.18C145.055,437.409 145.719,439.404 147.045,441.165ZM155.003,233.746C160.131,233.746 164.028,232.485 166.72,230.048C169.446,227.581 170.847,224.026 170.847,219.352C170.847,219.352 170.847,215.718 170.847,215.718C170.847,211.044 169.446,207.489 166.72,205.022C164.023,202.581 160.246,201.324 155.366,201.324C150.263,201.324 146.253,202.569 143.319,204.994C140.326,207.467 138.796,211.032 138.796,215.718C138.796,215.718 138.796,219.352 138.796,219.352C138.796,224.026 140.197,227.581 142.923,230.048C145.611,232.48 149.628,233.746 155.003,233.746ZM155.003,232.796C149.917,232.796 146.103,231.645 143.56,229.344C141.018,227.043 139.746,223.712 139.746,219.352L139.746,215.718C139.746,211.358 141.139,208.027 143.924,205.726C146.709,203.425 150.523,202.274 155.366,202.274C159.968,202.274 163.54,203.425 166.082,205.726C168.625,208.027 169.897,211.358 169.897,215.718L169.897,219.352C169.897,223.712 168.625,227.043 166.082,229.344C163.54,231.645 159.847,232.796 155.003,232.796Z"/>
                    <path d="M144.105,387.095C142.445,366.369 139.333,344.046 136.8,325.616C133.089,298.616 124.897,282.689 133.628,287.999C117.021,239.652 185.124,246.828 176.804,276.327C182.113,257.503 187.153,360.556 165.901,414.865L165.901,435.18C165.901,438.086 164.811,440.63 162.632,442.81C160.452,444.99 157.909,446.08 155.003,446.08C151.855,446.08 149.252,444.99 147.193,442.81C147.079,442.689 146.968,442.567 146.86,442.444C154.794,437.17 161.038,427.293 165.901,414.865L165.901,268.04C165.901,265.133 164.872,262.59 162.813,260.41C160.755,258.23 158.151,257.14 155.003,257.14C151.855,257.14 149.252,258.23 147.193,260.41C145.135,262.59 144.105,265.133 144.105,268.04L144.105,387.095C145.474,404.187 145.855,420.19 144.105,432.023L144.105,435.18C144.105,437.925 145.024,440.346 146.86,442.444C144.726,443.862 142.47,444.948 140.087,445.66C134.021,456.558 121.852,454.59 99.633,429.082C116.074,444.538 129.374,448.861 140.087,445.66C141.98,442.257 143.28,437.602 144.105,432.023L144.105,387.095ZM155.003,232.796C149.917,232.796 146.103,231.645 143.56,229.344C141.018,227.043 139.746,223.712 139.746,219.352L139.746,215.718C139.746,211.358 141.139,208.027 143.924,205.726C146.709,203.425 150.523,202.274 155.366,202.274C159.968,202.274 163.54,203.425 166.082,205.726C168.625,208.027 169.897,211.358 169.897,215.718L169.897,219.352C169.897,223.712 168.625,227.043 166.082,229.344C163.54,231.645 159.847,232.796 155.003,232.796Z" style="fill:rgb(0,121,29);fill-opacity:0.96;fill-rule:nonzero;"/>
                </g>
                <path d="M436.935,232.211L436.935,224.55C436.935,223.088 436.444,221.839 435.464,220.801C434.481,219.759 433.214,219.233 431.658,219.233C430.191,219.233 428.945,219.754 427.919,220.795C426.894,221.834 426.381,223.086 426.381,224.55L426.381,296.95C426.381,298.411 426.872,299.661 427.852,300.698C428.835,301.74 430.102,302.267 431.658,302.267C433.124,302.267 434.371,301.746 435.397,300.705C436.422,299.666 436.935,298.414 436.935,296.95C436.935,296.95 436.935,249.951 436.935,249.951C436.935,245.675 438.215,241.801 440.775,238.33C443.353,234.836 446.682,232.041 450.761,229.941C454.839,227.843 459.163,226.793 463.732,226.793C468.863,226.793 472.972,227.826 476.054,229.915C479.123,231.997 481.343,234.77 482.713,238.235C484.097,241.734 484.787,245.64 484.787,249.951L484.787,296.95C484.787,298.411 485.278,299.661 486.257,300.698C487.24,301.74 488.507,302.267 490.063,302.267C491.53,302.267 492.776,301.746 493.803,300.705C494.827,299.666 495.34,298.414 495.34,296.95L495.34,249.465C495.34,243.423 494.385,237.945 492.48,233.032C490.56,228.082 487.447,224.154 483.141,221.247C478.848,218.348 473.108,216.887 465.916,216.887C461.956,216.887 458.043,217.624 454.178,219.099C450.32,220.571 446.81,222.582 443.648,225.131C441.013,227.254 438.775,229.615 436.935,232.211ZM436.512,233.589C436.416,233.737 436.322,233.885 436.228,234.035C434.233,237.23 433.114,240.513 432.871,243.884L436.512,238.181L436.512,233.589C438.464,230.573 440.932,227.863 443.913,225.46C447.041,222.939 450.513,220.95 454.328,219.494C458.144,218.038 462.007,217.31 465.916,217.31C473.008,217.31 478.671,218.739 482.904,221.597C487.138,224.456 490.198,228.318 492.086,233.185C493.973,238.052 494.917,243.479 494.917,249.465L494.917,296.95C494.917,298.298 494.445,299.451 493.501,300.408C492.557,301.365 491.411,301.844 490.063,301.844C488.634,301.844 487.468,301.365 486.565,300.408C485.661,299.451 485.21,298.298 485.21,296.95L485.21,249.951C485.21,245.582 484.509,241.625 483.106,238.079C481.704,234.534 479.432,231.696 476.291,229.565C473.15,227.435 468.963,226.37 463.732,226.37C459.094,226.37 454.706,227.435 450.567,229.565C446.428,231.696 443.05,234.534 440.435,238.079C437.819,241.625 436.512,245.582 436.512,249.951L436.512,296.95C436.512,298.298 436.04,299.451 435.096,300.408C434.152,301.365 433.006,301.844 431.658,301.844C430.229,301.844 429.063,301.365 428.159,300.408C427.256,299.451 426.804,298.298 426.804,296.95L426.804,224.55C426.804,223.202 427.276,222.049 428.22,221.092C429.164,220.134 430.31,219.656 431.658,219.656C433.087,219.656 434.253,220.134 435.157,221.092C436.06,222.049 436.512,223.202 436.512,224.55L436.512,233.589ZM436.088,235.092L436.088,238.057C436.088,238.057 433.513,242.091 433.513,242.091C433.918,239.713 434.776,237.38 436.088,235.092Z"/>
                <path d="M465.916,217.31C473.008,217.31 478.671,218.739 482.904,221.597C487.138,224.456 490.198,228.318 492.086,233.185C493.973,238.052 494.917,243.479 494.917,249.465L494.917,296.95C494.917,298.298 494.445,299.451 493.501,300.408C492.557,301.365 491.411,301.844 490.063,301.844C488.634,301.844 487.468,301.365 486.565,300.408C485.661,299.451 485.21,298.298 485.21,296.95L485.21,249.951C485.21,245.582 484.509,241.625 483.106,238.079C481.704,234.534 479.432,231.696 476.291,229.565C473.15,227.435 468.963,226.37 463.732,226.37C459.094,226.37 454.706,227.435 450.567,229.565C446.428,231.696 443.05,234.534 440.435,238.079C437.819,241.625 436.512,245.582 436.512,249.951L436.512,296.95C436.512,298.298 436.04,299.451 435.096,300.408C434.152,301.365 433.006,301.844 431.658,301.844C430.229,301.844 429.063,301.365 428.159,300.408C427.256,299.451 426.804,298.298 426.804,296.95L426.804,224.55C426.804,223.202 427.276,222.049 428.22,221.092C429.164,220.134 430.31,219.656 431.658,219.656C433.087,219.656 434.253,220.134 435.157,221.092C436.06,222.049 436.512,223.202 436.512,224.55L436.512,238.181L432.871,243.884C433.114,240.513 434.233,237.23 436.228,234.035C438.224,230.839 440.785,227.981 443.913,225.46C447.041,222.939 450.513,220.95 454.328,219.494C458.144,218.038 462.007,217.31 465.916,217.31Z" style="fill:rgb(0,121,29);fill-opacity:0.96;fill-rule:nonzero;"/>
                <path d="M527.296,220.365L515.828,220.365C514.507,220.365 513.348,220.812 512.35,221.707C511.345,222.609 510.834,223.81 510.834,225.318C510.834,226.646 511.332,227.806 512.336,228.795C513.337,229.782 514.502,230.271 515.828,230.271L527.296,230.271L527.296,296.95C527.296,298.411 527.787,299.661 528.767,300.698C529.75,301.74 531.017,302.267 532.573,302.267C534.039,302.267 535.286,301.746 536.312,300.705C537.337,299.666 537.85,298.414 537.85,296.95L537.85,230.271L555.425,230.271C556.838,230.271 558.022,229.797 558.978,228.856C559.937,227.912 560.419,226.734 560.419,225.318C560.419,223.903 559.937,222.725 558.978,221.781C558.022,220.839 556.838,220.365 555.425,220.365L537.85,220.365L537.85,204.084C537.85,201.507 538.246,199.298 539.048,197.458C539.835,195.652 541,194.258 542.547,193.278C544.102,192.293 545.983,191.806 548.185,191.806C549.966,191.806 551.643,192.1 553.214,192.69C554.891,193.319 556.277,193.627 557.367,193.627C558.647,193.627 559.75,193.125 560.673,192.113C561.582,191.116 562.037,189.942 562.037,188.593C562.037,186.874 561.278,185.545 559.752,184.612C558.321,183.736 556.626,183.13 554.667,182.796C552.74,182.468 550.984,182.305 549.399,182.305C542.863,182.305 537.552,184.181 533.461,187.916C529.362,191.657 527.296,197.055 527.296,204.124L527.296,220.365ZM537.427,220.788L555.425,220.788C556.72,220.788 557.805,221.22 558.681,222.083C559.558,222.946 559.996,224.024 559.996,225.318C559.996,226.613 559.558,227.691 558.681,228.554C557.805,229.417 556.72,229.848 555.425,229.848L537.427,229.848L537.427,296.95C537.427,298.298 536.955,299.451 536.011,300.408C535.067,301.365 533.921,301.844 532.573,301.844C531.144,301.844 529.978,301.365 529.074,300.408C528.171,299.451 527.719,298.298 527.719,296.95L527.719,229.848L537.427,229.848L537.427,220.788ZM537.427,220.788L527.719,220.788L527.719,229.848L515.828,229.848C514.615,229.848 513.549,229.397 512.633,228.493C511.716,227.59 511.257,226.532 511.257,225.318C511.257,223.943 511.716,222.844 512.633,222.022C513.549,221.2 514.615,220.788 515.828,220.788L527.719,220.788L527.719,204.124C527.719,197.194 529.728,191.896 533.746,188.229C537.764,184.561 542.981,182.728 549.399,182.728C550.963,182.728 552.695,182.89 554.596,183.213C556.497,183.537 558.142,184.123 559.531,184.973C560.919,185.822 561.614,187.029 561.614,188.593C561.614,189.833 561.196,190.912 560.36,191.828C559.524,192.745 558.526,193.204 557.367,193.204C556.315,193.204 554.981,192.9 553.363,192.293C551.745,191.687 550.019,191.383 548.185,191.383C545.893,191.383 543.939,191.896 542.321,192.92C540.703,193.945 539.483,195.401 538.66,197.289C537.838,199.176 537.427,201.441 537.427,204.084L537.427,220.788ZM528.142,221.211L528.142,229.425L537.003,229.425L537.003,221.211L528.142,221.211Z"/>
                <path d="M549.399,182.728C550.963,182.728 552.695,182.89 554.596,183.213C556.497,183.537 558.142,184.123 559.531,184.973C560.919,185.822 561.614,187.029 561.614,188.593C561.614,189.833 561.196,190.912 560.36,191.828C559.524,192.745 558.526,193.204 557.367,193.204C556.315,193.204 554.981,192.9 553.363,192.293C551.745,191.687 550.019,191.383 548.185,191.383C545.893,191.383 543.939,191.896 542.321,192.92C540.703,193.945 539.483,195.401 538.66,197.289C537.838,199.176 537.427,201.441 537.427,204.084L537.427,296.95C537.427,298.298 536.955,299.451 536.011,300.408C535.067,301.365 533.921,301.844 532.573,301.844C531.144,301.844 529.978,301.365 529.074,300.408C528.171,299.451 527.719,298.298 527.719,296.95L527.719,204.124C527.719,197.194 529.728,191.896 533.746,188.229C537.764,184.561 542.981,182.728 549.399,182.728ZM555.425,220.788C556.72,220.788 557.805,221.22 558.681,222.083C559.558,222.946 559.996,224.024 559.996,225.318C559.996,226.613 559.558,227.691 558.681,228.554C557.805,229.417 556.72,229.848 555.425,229.848L515.828,229.848C514.615,229.848 513.549,229.397 512.633,228.493C511.716,227.59 511.257,226.532 511.257,225.318C511.257,223.943 511.716,222.844 512.633,222.022C513.549,221.2 514.615,220.788 515.828,220.788L555.425,220.788Z" style="fill:rgb(0,121,29);fill-opacity:0.96;fill-rule:nonzero;"/>
                <path d="M673.63,236.984L673.63,224.55C673.63,223.088 673.139,221.839 672.16,220.801C671.176,219.759 669.909,219.233 668.353,219.233C666.887,219.233 665.64,219.754 664.614,220.795C663.589,221.834 663.076,223.086 663.076,224.55L663.076,296.95C663.076,298.411 663.568,299.661 664.547,300.698C665.53,301.74 666.797,302.267 668.353,302.267C669.82,302.267 671.066,301.746 672.093,300.705C673.117,299.666 673.63,298.414 673.63,296.95L673.63,257.029C673.63,253.279 674.355,249.577 675.805,245.92C677.258,242.254 679.211,238.92 681.664,235.92C684.111,232.928 686.816,230.56 689.782,228.818C692.718,227.093 695.686,226.227 698.688,226.227C700.443,226.227 701.85,226.482 702.908,227.011C704.079,227.597 705.195,227.885 706.252,227.885C707.554,227.885 708.68,227.406 709.627,226.444C710.56,225.497 711.043,224.155 711.043,222.406C711.043,220.394 710.041,218.951 708.015,218.093C706.114,217.289 704.165,216.887 702.167,216.887C697.457,216.887 693.22,217.855 689.455,219.785C685.699,221.711 682.454,224.259 679.722,227.429C677.202,230.352 675.171,233.537 673.63,236.984ZM673.207,239.106C671.91,242.478 671.128,245.877 670.861,249.303L673.207,248.858L673.207,239.106C673.349,238.737 673.497,238.367 673.652,237.998C675.216,234.264 677.346,230.833 680.042,227.705C682.739,224.577 685.941,222.062 689.648,220.161C693.356,218.26 697.529,217.31 702.167,217.31C704.108,217.31 706.003,217.701 707.85,218.483C709.697,219.265 710.62,220.573 710.62,222.406C710.62,224.024 710.189,225.271 709.326,226.148C708.463,227.024 707.438,227.462 706.252,227.462C705.254,227.462 704.203,227.186 703.097,226.633C701.992,226.08 700.522,225.804 698.688,225.804C695.614,225.804 692.574,226.687 689.568,228.453C686.561,230.219 683.817,232.619 681.337,235.653C678.856,238.686 676.881,242.057 675.411,245.764C673.942,249.472 673.207,253.227 673.207,257.029L673.207,296.95C673.207,298.298 672.735,299.451 671.791,300.408C670.847,301.365 669.701,301.844 668.353,301.844C666.924,301.844 665.758,301.365 664.855,300.408C663.951,299.451 663.5,298.298 663.5,296.95L663.5,224.55C663.5,223.202 663.971,222.049 664.915,221.092C665.859,220.134 667.005,219.656 668.353,219.656C669.782,219.656 670.949,220.134 671.852,221.092C672.755,222.049 673.207,223.202 673.207,224.55L673.207,239.106ZM672.784,241.608L672.784,248.508C672.784,248.508 671.33,248.784 671.33,248.784C671.558,246.378 672.042,243.986 672.784,241.608Z"/>
                <path d="M668.353,301.844C666.924,301.844 665.758,301.365 664.855,300.408C663.951,299.451 663.5,298.298 663.5,296.95L663.5,224.55C663.5,223.202 663.971,222.049 664.915,221.092C665.859,220.134 667.005,219.656 668.353,219.656C669.782,219.656 670.949,220.134 671.852,221.092C672.755,222.049 673.207,223.202 673.207,224.55L673.207,248.858L670.861,249.303C671.158,245.501 672.088,241.733 673.652,237.998C675.216,234.264 677.346,230.833 680.042,227.705C682.739,224.577 685.941,222.062 689.648,220.161C693.356,218.26 697.529,217.31 702.167,217.31C704.108,217.31 706.003,217.701 707.85,218.483C709.697,219.265 710.62,220.573 710.62,222.406C710.62,224.024 710.189,225.271 709.326,226.148C708.463,227.024 707.438,227.462 706.252,227.462C705.254,227.462 704.203,227.186 703.097,226.633C701.992,226.08 700.522,225.804 698.688,225.804C695.614,225.804 692.574,226.687 689.568,228.453C686.561,230.219 683.817,232.619 681.337,235.653C678.856,238.686 676.881,242.057 675.411,245.764C673.942,249.472 673.207,253.227 673.207,257.029L673.207,296.95C673.207,298.298 672.735,299.451 671.791,300.408C670.847,301.365 669.701,301.844 668.353,301.844Z" style="fill:rgb(0,121,29);fill-opacity:0.96;fill-rule:nonzero;"/>
                <g transform="matrix(0.663317,0,0,0.663156,298.596,34.8984)">
                    <path d="M521.306,340.143C521.306,327.545 518.583,316.303 513.147,306.413C507.706,296.513 500.302,288.709 490.938,282.999C481.572,277.287 470.954,274.428 459.081,274.428C447.332,274.428 436.745,277.286 427.317,282.998C417.893,288.707 410.428,296.511 404.925,306.41C399.427,316.301 396.674,327.544 396.674,340.143C396.674,352.62 399.427,363.803 404.925,373.694C410.428,383.593 417.893,391.387 427.318,397.076C436.746,402.767 447.333,405.615 459.081,405.615C470.953,405.615 481.571,402.766 490.937,397.075C500.302,391.386 507.705,383.592 513.147,373.691C518.584,363.801 521.306,352.619 521.306,340.143ZM520.668,340.143C520.668,352.504 517.975,363.585 512.588,373.384C507.202,383.183 499.875,390.899 490.606,396.53C481.338,402.162 470.829,404.977 459.081,404.977C447.455,404.977 436.977,402.162 427.648,396.53C418.318,390.899 410.93,383.183 405.483,373.384C400.035,363.585 397.312,352.504 397.312,340.143C397.312,327.661 400.035,316.519 405.483,306.72C410.93,296.921 418.318,289.195 427.648,283.543C436.977,277.892 447.455,275.066 459.081,275.066C470.829,275.066 481.338,277.892 490.606,283.543C499.875,289.195 507.202,296.921 512.588,306.72C517.975,316.519 520.668,327.661 520.668,340.143ZM471.071,290.181C470.718,290.085 470.363,289.993 470.007,289.906L464.372,281.568C460.792,281.201 457.187,281.201 453.608,281.568L447.972,289.906C446.902,290.168 445.84,290.469 444.789,290.807L435.958,286.559C432.684,288.13 429.563,290.033 426.637,292.239L425.706,302.434C424.903,303.226 424.126,304.047 423.376,304.894L413.716,305.876C411.625,308.964 409.823,312.259 408.334,315.714L412.358,325.034C412.038,326.143 411.754,327.264 411.505,328.394L403.605,334.342C403.257,338.119 403.257,341.924 403.605,345.701L411.505,351.649C411.754,352.779 412.038,353.9 412.358,355.009L408.334,364.329C409.823,367.784 411.625,371.079 413.716,374.167L423.376,375.149C424.126,375.996 424.903,376.817 425.706,377.609L426.637,387.804C429.563,390.01 432.684,391.913 435.958,393.484L444.789,389.237C445.84,389.574 446.902,389.875 447.972,390.137L453.608,398.475C457.187,398.842 460.792,398.842 464.372,398.475L470.007,390.137C470.363,390.05 470.718,389.958 471.071,389.862C471.797,389.677 472.514,389.473 473.223,389.252L482.021,393.484C485.295,391.913 488.417,390.01 491.343,387.804L492.273,377.609C493.076,376.817 493.854,375.996 494.604,375.149L504.264,374.167C506.355,371.079 508.157,367.784 509.645,364.329L505.621,355.009C505.941,353.9 506.226,352.779 506.474,351.649L514.375,345.701C514.722,341.924 514.722,338.119 514.375,334.342L506.474,328.394C506.226,327.264 505.941,326.143 505.621,325.034L509.645,315.714C508.157,312.259 506.355,308.964 504.264,305.876L494.604,304.894C493.854,304.047 493.076,303.226 492.273,302.434L491.343,292.239C488.417,290.033 485.295,288.13 482.021,286.559L473.223,290.791C472.514,290.57 471.797,290.366 471.071,290.181ZM470.904,290.796C470.907,290.797 470.91,290.798 470.913,290.799C471.628,290.981 472.334,291.182 473.033,291.4C473.188,291.448 473.354,291.436 473.5,291.366L482.021,287.268C485.073,288.754 487.989,290.532 490.733,292.579C490.733,292.58 491.638,302.492 491.638,302.492C491.652,302.642 491.718,302.783 491.825,302.888C492.618,303.67 493.385,304.48 494.126,305.317C494.232,305.437 494.38,305.512 494.539,305.529L503.902,306.48C505.849,309.389 507.539,312.479 508.95,315.714C508.95,315.714 505.036,324.781 505.036,324.781C504.977,324.917 504.967,325.069 505.008,325.211C505.325,326.307 505.606,327.414 505.851,328.531C505.884,328.679 505.969,328.812 506.091,328.903L513.765,334.681C514.075,338.234 514.075,341.809 513.765,345.362C513.765,345.362 506.091,351.14 506.091,351.14C505.969,351.231 505.884,351.364 505.851,351.512C505.606,352.629 505.325,353.736 505.008,354.832C504.967,354.974 504.977,355.126 505.036,355.262L508.95,364.329C507.539,367.564 505.849,370.655 503.902,373.563C503.902,373.563 494.539,374.515 494.539,374.515C494.38,374.531 494.232,374.606 494.126,374.726C493.385,375.563 492.618,376.373 491.825,377.155C491.718,377.26 491.652,377.401 491.638,377.551L490.733,387.463C487.989,389.511 485.073,391.289 482.021,392.775C482.021,392.775 473.5,388.677 473.5,388.677C473.354,388.607 473.187,388.595 473.033,388.643C472.335,388.861 471.628,389.062 470.913,389.244C470.91,389.245 470.907,389.246 470.904,389.247C470.556,389.341 470.206,389.431 469.855,389.517C469.702,389.555 469.567,389.648 469.479,389.78L464.011,397.87C460.67,398.193 457.309,398.193 453.969,397.87C453.969,397.87 448.501,389.78 448.501,389.78C448.412,389.648 448.278,389.555 448.124,389.517C447.068,389.259 446.021,388.963 444.984,388.629C444.828,388.579 444.66,388.591 444.512,388.662L435.959,392.775C432.907,391.289 429.99,389.511 427.246,387.464C427.246,387.463 426.341,377.551 426.341,377.551C426.328,377.401 426.261,377.26 426.154,377.155C425.361,376.373 424.594,375.563 423.853,374.726C423.747,374.606 423.6,374.531 423.44,374.515L414.078,373.563C412.13,370.655 410.441,367.564 409.029,364.329C409.029,364.329 412.944,355.262 412.944,355.262C413.003,355.126 413.012,354.974 412.971,354.832C412.655,353.736 412.374,352.629 412.128,351.512C412.096,351.364 412.011,351.231 411.889,351.14L404.215,345.362C403.904,341.809 403.904,338.234 404.215,334.681C404.215,334.681 411.889,328.903 411.889,328.903C412.011,328.812 412.096,328.679 412.128,328.531C412.374,327.414 412.655,326.307 412.971,325.211C413.012,325.069 413.003,324.917 412.944,324.781L409.029,315.714C410.441,312.479 412.13,309.388 414.078,306.48C414.078,306.48 423.44,305.529 423.44,305.529C423.6,305.512 423.747,305.437 423.853,305.317C424.594,304.48 425.361,303.67 426.154,302.888C426.261,302.783 426.328,302.642 426.341,302.492L427.246,292.58C429.991,290.532 432.907,288.754 435.958,287.268C435.959,287.268 444.512,291.381 444.512,291.381C444.66,291.452 444.828,291.464 444.984,291.414C446.021,291.081 447.068,290.784 448.124,290.526C448.278,290.488 448.412,290.395 448.501,290.263L453.969,282.173C457.309,281.85 460.67,281.85 464.01,282.173C464.011,282.173 469.479,290.263 469.479,290.263C469.567,290.395 469.702,290.488 469.855,290.526C470.206,290.612 470.556,290.702 470.904,290.796Z"/>
                    <path d="M520.668,340.143C520.668,352.504 517.975,363.585 512.588,373.384C507.202,383.183 499.875,390.899 490.606,396.53C481.338,402.162 470.829,404.977 459.081,404.977C447.455,404.977 436.977,402.162 427.648,396.53C418.318,390.899 410.93,383.183 405.483,373.384C400.035,363.585 397.312,352.504 397.312,340.143C397.312,327.661 400.035,316.519 405.483,306.72C410.93,296.921 418.318,289.195 427.648,283.543C436.977,277.892 447.455,275.066 459.081,275.066C470.829,275.066 481.338,277.892 490.606,283.543C499.875,289.195 507.202,296.921 512.588,306.72C517.975,316.519 520.668,327.661 520.668,340.143ZM471.071,290.181C470.718,290.085 470.363,289.993 470.007,289.906L464.372,281.568C460.792,281.201 457.187,281.201 453.608,281.568L447.972,289.906C446.902,290.168 445.84,290.469 444.789,290.807L435.958,286.559C432.684,288.13 429.563,290.033 426.637,292.239L425.706,302.434C424.903,303.226 424.126,304.047 423.376,304.894L413.716,305.876C411.625,308.964 409.823,312.259 408.334,315.714L412.358,325.034C412.038,326.143 411.754,327.264 411.505,328.394L403.605,334.342C403.257,338.119 403.257,341.924 403.605,345.701L411.505,351.649C411.754,352.779 412.038,353.9 412.358,355.009L408.334,364.329C409.823,367.784 411.625,371.079 413.716,374.167L423.376,375.149C424.126,375.996 424.903,376.817 425.706,377.609L426.637,387.804C429.563,390.01 432.684,391.913 435.958,393.484L444.789,389.237C445.84,389.574 446.902,389.875 447.972,390.137L453.608,398.475C457.187,398.842 460.792,398.842 464.372,398.475L470.007,390.137C470.363,390.05 470.718,389.958 471.071,389.862C471.797,389.677 472.514,389.473 473.223,389.252L482.021,393.484C485.295,391.913 488.417,390.01 491.343,387.804L492.273,377.609C493.076,376.817 493.854,375.996 494.604,375.149L504.264,374.167C506.355,371.079 508.157,367.784 509.645,364.329L505.621,355.009C505.941,353.9 506.226,352.779 506.474,351.649L514.375,345.701C514.722,341.924 514.722,338.119 514.375,334.342L506.474,328.394C506.226,327.264 505.941,326.143 505.621,325.034L509.645,315.714C508.157,312.259 506.355,308.964 504.264,305.876L494.604,304.894C493.854,304.047 493.076,303.226 492.273,302.434L491.343,292.239C488.417,290.033 485.295,288.13 482.021,286.559L473.223,290.791C472.514,290.57 471.797,290.366 471.071,290.181Z" style="fill:url(#_Radial1);fill-rule:nonzero;"/>
                </g>
                <path d="M733.168,287.995C733.658,288.706 734.174,289.405 734.718,290.093C736.873,292.82 739.375,295.214 742.224,297.272C745.076,299.333 748.227,300.95 751.679,302.123C755.133,303.297 758.758,303.885 762.554,303.885C769.814,303.885 776.336,301.966 782.121,298.132C787.897,294.304 792.476,289.087 795.855,282.48C799.227,275.885 800.916,268.412 800.916,260.062C800.916,251.629 799.226,244.183 795.853,237.722C792.474,231.249 787.901,226.161 782.137,222.455C776.367,218.745 769.786,216.887 762.392,216.887C758.732,216.887 755.202,217.461 751.801,218.608C748.404,219.754 745.273,221.357 742.407,223.418C739.541,225.479 737.057,227.909 734.955,230.707C734.315,231.558 733.719,232.437 733.168,233.343L733.168,187.137C733.168,185.675 732.677,184.426 731.697,183.388C730.714,182.346 729.447,181.819 727.891,181.819C726.335,181.819 725.068,182.346 724.085,183.388C723.105,184.426 722.614,185.675 722.614,187.137L722.614,297.354C722.614,298.848 723.129,300.107 724.154,301.132C725.18,302.158 726.425,302.671 727.891,302.671C729.447,302.671 730.714,302.145 731.697,301.103C732.677,300.065 733.168,298.816 733.168,297.354L733.168,287.995ZM732.745,234.927C731.85,236.573 731.095,238.305 730.48,240.122L732.745,241.335L732.745,234.927C733.496,233.545 734.345,232.222 735.293,230.961C737.369,228.197 739.823,225.797 742.654,223.761C745.485,221.725 748.58,220.141 751.937,219.009C755.294,217.876 758.779,217.31 762.392,217.31C769.7,217.31 776.205,219.144 781.908,222.811C787.611,226.478 792.134,231.514 795.478,237.918C798.821,244.322 800.493,251.703 800.493,260.062C800.493,268.34 798.821,275.749 795.478,282.288C792.134,288.827 787.604,293.99 781.888,297.779C776.171,301.568 769.727,303.462 762.554,303.462C758.806,303.462 755.226,302.882 751.815,301.723C748.404,300.563 745.29,298.965 742.472,296.93C739.654,294.894 737.18,292.528 735.05,289.831C734.218,288.778 733.449,287.697 732.745,286.59L732.745,278.991L729.913,281.216C730.702,283.073 731.646,284.864 732.745,286.59L732.745,297.354C732.745,298.703 732.293,299.855 731.39,300.813C730.486,301.77 729.32,302.248 727.891,302.248C726.543,302.248 725.397,301.777 724.453,300.833C723.509,299.889 723.037,298.73 723.037,297.354L723.037,187.137C723.037,185.788 723.489,184.636 724.392,183.678C725.296,182.721 726.462,182.242 727.891,182.242C729.32,182.242 730.486,182.721 731.39,183.678C732.293,184.636 732.745,185.788 732.745,187.137L732.745,234.927ZM761.543,226.37C755.745,226.37 750.642,227.819 746.234,230.718C741.825,233.617 738.36,237.594 735.839,242.65C733.318,247.706 732.057,253.51 732.057,260.062C732.057,266.588 733.318,272.453 735.839,277.657C738.36,282.861 741.825,286.953 746.234,289.932C750.642,292.912 755.745,294.402 761.543,294.402C767.259,294.402 772.315,292.892 776.71,289.872C781.106,286.852 784.584,282.74 787.146,277.535C789.707,272.331 790.988,266.507 790.988,260.062C790.988,253.51 789.707,247.706 787.146,242.65C784.584,237.594 781.106,233.617 776.71,230.718C772.315,227.819 767.259,226.37 761.543,226.37ZM761.543,226.793C767.171,226.793 772.15,228.217 776.477,231.071C780.813,233.93 784.242,237.854 786.768,242.841C789.302,247.841 790.565,253.582 790.565,260.062C790.565,266.438 789.3,272.2 786.766,277.349C784.238,282.484 780.808,286.543 776.471,289.523C772.145,292.495 767.169,293.979 761.543,293.979C755.836,293.979 750.811,292.515 746.471,289.582C742.122,286.643 738.706,282.605 736.22,277.472C733.725,272.323 732.48,266.519 732.48,260.062C732.48,253.581 733.724,247.839 736.218,242.839C738.704,237.853 742.119,233.93 746.466,231.071C750.808,228.217 755.834,226.793 761.543,226.793ZM732.322,285.081C731.617,283.868 730.986,282.624 730.431,281.348C730.431,281.348 732.322,279.862 732.322,279.862L732.322,285.081ZM732.322,236.693L732.322,240.629C732.322,240.629 730.997,239.919 730.997,239.919C731.385,238.811 731.827,237.735 732.322,236.693Z"/>
                <path d="M762.392,217.31C769.7,217.31 776.205,219.144 781.908,222.811C787.611,226.478 792.134,231.514 795.478,237.918C798.821,244.322 800.493,251.703 800.493,260.062C800.493,268.34 798.821,275.749 795.478,282.288C792.134,288.827 787.604,293.99 781.888,297.779C776.171,301.568 769.727,303.462 762.554,303.462C758.806,303.462 755.226,302.882 751.815,301.723C748.404,300.563 745.29,298.965 742.472,296.93C739.654,294.894 737.18,292.528 735.05,289.831C732.92,287.135 731.208,284.263 729.913,281.216L732.745,278.991L732.745,297.354C732.745,298.703 732.293,299.855 731.39,300.813C730.486,301.77 729.32,302.248 727.891,302.248C726.543,302.248 725.397,301.777 724.453,300.833C723.509,299.889 723.037,298.73 723.037,297.354L723.037,187.137C723.037,185.788 723.489,184.636 724.392,183.678C725.296,182.721 726.462,182.242 727.891,182.242C729.32,182.242 730.486,182.721 731.39,183.678C732.293,184.636 732.745,185.788 732.745,187.137L732.745,241.335L730.48,240.122C731.612,236.778 733.217,233.725 735.293,230.961C737.369,228.197 739.823,225.797 742.654,223.761C745.485,221.725 748.58,220.141 751.937,219.009C755.294,217.876 758.779,217.31 762.392,217.31ZM761.543,226.37C755.745,226.37 750.642,227.819 746.234,230.718C741.825,233.617 738.36,237.594 735.839,242.65C733.318,247.706 732.057,253.51 732.057,260.062C732.057,266.588 733.318,272.453 735.839,277.657C738.36,282.861 741.825,286.953 746.234,289.932C750.642,292.912 755.745,294.402 761.543,294.402C767.259,294.402 772.315,292.892 776.71,289.872C781.106,286.852 784.584,282.74 787.146,277.535C789.707,272.331 790.988,266.507 790.988,260.062C790.988,253.51 789.707,247.706 787.146,242.65C784.584,237.594 781.106,233.617 776.71,230.718C772.315,227.819 767.259,226.37 761.543,226.37Z" style="fill:rgb(0,121,29);fill-opacity:0.96;fill-rule:nonzero;"/>
                <path d="M829.836,296.99L829.836,222.568C829.836,221.163 829.34,219.934 828.345,218.88C827.347,217.823 826.086,217.291 824.559,217.291C823.032,217.291 821.771,217.823 820.773,218.88C819.778,219.934 819.282,221.163 819.282,222.568C819.282,222.568 819.282,296.99 819.282,296.99C819.282,298.395 819.778,299.625 820.773,300.678C821.771,301.735 823.032,302.267 824.559,302.267C825.967,302.267 827.2,301.743 828.256,300.687C829.312,299.631 829.836,298.398 829.836,296.99ZM829.413,296.99C829.413,298.285 828.927,299.417 827.957,300.388C826.986,301.359 825.853,301.844 824.559,301.844C823.157,301.844 821.998,301.359 821.081,300.388C820.164,299.417 819.706,298.285 819.706,296.99L819.706,222.568C819.706,221.274 820.164,220.141 821.081,219.17C821.998,218.2 823.157,217.714 824.559,217.714C825.961,217.714 827.121,218.2 828.038,219.17C828.954,220.141 829.413,221.274 829.413,222.568L829.413,296.99ZM824.559,207.298C826.843,207.298 828.579,206.736 829.778,205.651C830.992,204.553 831.616,202.97 831.616,200.888C831.616,200.888 831.616,199.271 831.616,199.271C831.616,197.189 830.992,195.606 829.778,194.508C828.576,193.421 826.894,192.861 824.721,192.861C822.448,192.861 820.662,193.416 819.355,194.495C818.022,195.597 817.341,197.184 817.341,199.271L817.341,200.888C817.341,202.97 817.965,204.553 819.179,205.651C820.376,206.734 822.165,207.298 824.559,207.298ZM824.559,206.875C822.294,206.875 820.595,206.362 819.463,205.338C818.33,204.313 817.764,202.83 817.764,200.888L817.764,199.271C817.764,197.329 818.384,195.846 819.625,194.821C820.865,193.797 822.564,193.284 824.721,193.284C826.77,193.284 828.361,193.797 829.494,194.821C830.626,195.846 831.192,197.329 831.192,199.271L831.192,200.888C831.192,202.83 830.626,204.313 829.494,205.338C828.361,206.362 826.716,206.875 824.559,206.875Z"/>
                <path d="M829.413,296.99C829.413,298.285 828.927,299.417 827.957,300.388C826.986,301.359 825.853,301.844 824.559,301.844C823.157,301.844 821.998,301.359 821.081,300.388C820.164,299.417 819.706,298.285 819.706,296.99L819.706,222.568C819.706,221.274 820.164,220.141 821.081,219.17C821.998,218.2 823.157,217.714 824.559,217.714C825.961,217.714 827.121,218.2 828.038,219.17C828.954,220.141 829.413,221.274 829.413,222.568L829.413,296.99ZM824.559,206.875C822.294,206.875 820.595,206.362 819.463,205.338C818.33,204.313 817.764,202.83 817.764,200.888L817.764,199.271C817.764,197.329 818.384,195.846 819.625,194.821C820.865,193.797 822.564,193.284 824.721,193.284C826.77,193.284 828.361,193.797 829.494,194.821C830.626,195.846 831.192,197.329 831.192,199.271L831.192,200.888C831.192,202.83 830.626,204.313 829.494,205.338C828.361,206.362 826.716,206.875 824.559,206.875Z" style="fill:rgb(0,121,29);fill-opacity:0.96;fill-rule:nonzero;"/>
            </g>
            <g transform="matrix(0.632812,0,0,0.847327,193.486,147.702)">
                <g>
                    <path d="M398.249,301.844C397.278,301.844 396.496,301.52 395.903,300.873C395.31,300.226 395.013,299.471 395.013,298.608L395.013,185.357C395.013,184.494 395.31,183.739 395.903,183.092C396.496,182.445 397.278,182.121 398.249,182.121C399.22,182.121 400.001,182.445 400.595,183.092C401.188,183.739 401.485,184.494 401.485,185.357L401.485,298.608C401.485,299.471 401.188,300.226 400.595,300.873C400.001,301.52 399.22,301.844 398.249,301.844ZM454.389,220.141C455.252,220.141 456.007,220.465 456.654,221.112C457.301,221.759 457.625,222.568 457.625,223.539C457.625,224.509 457.247,225.318 456.492,225.966L400.352,272.722L400.028,264.956L452.286,221.112C452.933,220.465 453.634,220.141 454.389,220.141ZM455.36,301.844C454.497,301.844 453.688,301.466 452.933,300.711L413.78,258.97L418.634,254.764L457.625,296.181C458.272,296.829 458.596,297.637 458.596,298.608C458.596,299.687 458.164,300.496 457.301,301.035C456.438,301.574 455.791,301.844 455.36,301.844Z" style="fill-rule:nonzero;"/>
                    <path d="M550.167,261.073C550.167,269.055 548.442,276.255 544.99,282.672C541.539,289.09 536.82,294.159 530.834,297.88C524.848,301.601 518.026,303.462 510.368,303.462C502.818,303.462 496.022,301.601 489.982,297.88C483.942,294.159 479.17,289.09 475.664,282.672C472.159,276.255 470.406,269.055 470.406,261.073C470.406,252.984 472.159,245.731 475.664,239.313C479.17,232.895 483.942,227.826 489.982,224.105C496.022,220.384 502.818,218.523 510.368,218.523C518.026,218.523 524.848,220.384 530.834,224.105C536.82,227.826 541.539,232.895 544.99,239.313C548.442,245.731 550.167,252.984 550.167,261.073ZM543.696,261.073C543.696,254.063 542.267,247.834 539.408,242.387C536.55,236.94 532.613,232.626 527.598,229.444C522.583,226.262 516.839,224.671 510.368,224.671C504.004,224.671 498.287,226.262 493.218,229.444C488.149,232.626 484.158,236.94 481.246,242.387C478.334,247.834 476.878,254.063 476.878,261.073C476.878,267.976 478.334,274.151 481.246,279.598C484.158,285.045 488.149,289.359 493.218,292.541C498.287,295.723 504.004,297.314 510.368,297.314C516.839,297.314 522.583,295.723 527.598,292.541C532.613,289.359 536.55,285.045 539.408,279.598C542.267,274.151 543.696,267.976 543.696,261.073Z" style="fill-rule:nonzero;"/>
                    <path d="M575.244,301.844C574.274,301.844 573.492,301.52 572.899,300.873C572.305,300.226 572.009,299.471 572.009,298.608L572.009,224.348C572.009,223.485 572.332,222.73 572.979,222.083C573.627,221.435 574.382,221.112 575.244,221.112C576.215,221.112 576.997,221.435 577.59,222.083C578.184,222.73 578.48,223.485 578.48,224.348L578.48,251.69L575.73,255.896C575.73,251.69 576.458,247.429 577.914,243.115C579.37,238.801 581.5,234.783 584.305,231.062C587.109,227.341 590.533,224.321 594.578,222.002C598.623,219.683 603.288,218.523 608.573,218.523C610.083,218.523 611.701,218.739 613.426,219.17C615.152,219.602 616.015,220.627 616.015,222.244C616.015,223.215 615.745,224.024 615.206,224.671C614.667,225.318 613.966,225.642 613.103,225.642C612.456,225.642 611.674,225.399 610.757,224.914C609.84,224.429 608.519,224.186 606.793,224.186C603.342,224.186 599.944,225.211 596.6,227.26C593.257,229.309 590.21,232.033 587.459,235.43C584.709,238.828 582.525,242.522 580.907,246.513C579.289,250.503 578.48,254.386 578.48,258.161L578.48,298.608C578.48,299.471 578.157,300.226 577.509,300.873C576.862,301.52 576.107,301.844 575.244,301.844Z" style="fill-rule:nonzero;"/>
                    <path d="M669.081,218.523C676.308,218.523 682.725,220.33 688.334,223.943C693.943,227.556 698.392,232.518 701.681,238.828C704.971,245.137 706.616,252.391 706.616,260.588C706.616,268.677 704.971,275.958 701.681,282.429C698.392,288.901 693.916,294.024 688.253,297.799C682.591,301.574 676.2,303.462 669.081,303.462C665.522,303.462 662.097,302.923 658.808,301.844C655.518,300.765 652.471,299.228 649.667,297.233C646.862,295.238 644.301,292.811 641.982,289.953C639.663,287.094 637.641,283.886 635.915,280.326L638.018,278.061L638.018,298.608C638.018,299.471 637.721,300.226 637.128,300.873C636.535,301.52 635.753,301.844 634.782,301.844C633.919,301.844 633.164,301.52 632.517,300.873C631.87,300.226 631.547,299.471 631.547,298.608L631.547,185.519C631.547,184.656 631.843,183.901 632.436,183.254C633.03,182.606 633.812,182.283 634.782,182.283C635.753,182.283 636.535,182.606 637.128,183.254C637.721,183.901 638.018,184.656 638.018,185.519L638.018,244.086L635.915,242.953C637.425,238.962 639.312,235.457 641.577,232.437C643.842,229.417 646.431,226.882 649.343,224.833C652.255,222.784 655.383,221.22 658.727,220.141C662.07,219.063 665.522,218.523 669.081,218.523ZM668.758,224.671C662.61,224.671 657.19,226.208 652.498,229.282C647.806,232.356 644.112,236.59 641.416,241.983C638.719,247.375 637.371,253.577 637.371,260.588C637.371,267.599 638.719,273.882 641.416,279.436C644.112,284.991 647.806,289.359 652.498,292.541C657.19,295.723 662.61,297.314 668.758,297.314C674.798,297.314 680.164,295.696 684.856,292.46C689.547,289.225 693.268,284.829 696.019,279.275C698.769,273.72 700.144,267.491 700.144,260.588C700.144,253.577 698.769,247.375 696.019,241.983C693.268,236.59 689.547,232.356 684.856,229.282C680.164,226.208 674.798,224.671 668.758,224.671Z" style="fill-rule:nonzero;"/>
                    <path d="M734.929,298.608C734.929,299.471 734.605,300.226 733.958,300.873C733.311,301.52 732.556,301.844 731.693,301.844C730.722,301.844 729.94,301.52 729.347,300.873C728.754,300.226 728.457,299.471 728.457,298.608L728.457,221.759C728.457,220.896 728.781,220.141 729.428,219.494C730.075,218.847 730.83,218.523 731.693,218.523C732.664,218.523 733.446,218.847 734.039,219.494C734.632,220.141 734.929,220.896 734.929,221.759L734.929,298.608ZM731.693,207.522C729.967,207.522 728.592,207.036 727.567,206.066C726.543,205.095 726.03,203.855 726.03,202.345L726.03,201.05C726.03,199.54 726.57,198.3 727.648,197.329C728.727,196.358 730.129,195.873 731.855,195.873C733.365,195.873 734.632,196.358 735.657,197.329C736.682,198.3 737.194,199.54 737.194,201.05L737.194,202.345C737.194,203.855 736.682,205.095 735.657,206.066C734.632,207.036 733.311,207.522 731.693,207.522Z" style="fill-rule:nonzero;"/>
                    <path d="M798.511,218.523C805.306,218.523 810.834,219.872 815.095,222.568C819.355,225.264 822.483,228.932 824.478,233.57C826.474,238.207 827.471,243.385 827.471,249.101L827.471,298.608C827.471,299.471 827.148,300.226 826.501,300.873C825.853,301.52 825.098,301.844 824.236,301.844C823.265,301.844 822.483,301.52 821.89,300.873C821.296,300.226 821,299.471 821,298.608L821,249.748C821,245.11 820.218,240.904 818.654,237.129C817.09,233.354 814.609,230.334 811.212,228.069C807.814,225.804 803.365,224.671 797.864,224.671C793.118,224.671 788.481,225.804 783.95,228.069C779.42,230.334 775.672,233.354 772.706,237.129C769.74,240.904 768.257,245.11 768.257,249.748L768.257,298.608C768.257,299.471 767.933,300.226 767.286,300.873C766.639,301.52 765.884,301.844 765.021,301.844C764.051,301.844 763.269,301.52 762.675,300.873C762.082,300.226 761.786,299.471 761.786,298.608L761.786,224.348C761.786,223.485 762.109,222.73 762.756,222.083C763.403,221.435 764.158,221.112 765.021,221.112C765.992,221.112 766.774,221.435 767.367,222.083C767.96,222.73 768.257,223.485 768.257,224.348L768.257,240.203L764.212,247.969C764.212,244.086 765.237,240.365 767.286,236.805C769.336,233.246 772.032,230.091 775.376,227.341C778.719,224.59 782.413,222.433 786.458,220.869C790.503,219.305 794.521,218.523 798.511,218.523Z" style="fill-rule:nonzero;"/>
                    <path d="M860.8,298.608C860.8,299.471 860.476,300.226 859.829,300.873C859.182,301.52 858.427,301.844 857.564,301.844C856.593,301.844 855.811,301.52 855.218,300.873C854.625,300.226 854.328,299.471 854.328,298.608L854.328,221.759C854.328,220.896 854.652,220.141 855.299,219.494C855.946,218.847 856.701,218.523 857.564,218.523C858.535,218.523 859.317,218.847 859.91,219.494C860.503,220.141 860.8,220.896 860.8,221.759L860.8,298.608ZM857.564,207.522C855.838,207.522 854.463,207.036 853.438,206.066C852.414,205.095 851.901,203.855 851.901,202.345L851.901,201.05C851.901,199.54 852.441,198.3 853.519,197.329C854.598,196.358 856,195.873 857.726,195.873C859.236,195.873 860.503,196.358 861.528,197.329C862.552,198.3 863.065,199.54 863.065,201.05L863.065,202.345C863.065,203.855 862.552,205.095 861.528,206.066C860.503,207.036 859.182,207.522 857.564,207.522Z" style="fill-rule:nonzero;"/>
                    <path d="M954.475,221.112C955.445,221.112 956.227,221.435 956.821,222.083C957.414,222.73 957.71,223.485 957.71,224.348L957.71,298.608C957.71,299.471 957.387,300.226 956.74,300.873C956.092,301.52 955.337,301.844 954.475,301.844C953.504,301.844 952.722,301.52 952.129,300.873C951.535,300.226 951.239,299.471 951.239,298.608L951.239,275.634L953.827,273.531C953.827,276.983 952.965,280.488 951.239,284.047C949.513,287.607 947.14,290.842 944.12,293.755C941.1,296.667 937.541,299.013 933.442,300.792C929.344,302.572 924.921,303.462 920.176,303.462C912.949,303.462 906.505,301.574 900.842,297.799C895.179,294.024 890.73,288.901 887.495,282.429C884.259,275.958 882.641,268.677 882.641,260.588C882.641,252.391 884.286,245.137 887.575,238.828C890.865,232.518 895.341,227.556 901.004,223.943C906.666,220.33 913.057,218.523 920.176,218.523C924.814,218.523 929.182,219.359 933.28,221.031C937.379,222.703 940.965,225.049 944.039,228.069C947.113,231.089 949.513,234.621 951.239,238.666C952.965,242.711 953.827,247.106 953.827,251.852L951.239,247.807L951.239,224.348C951.239,223.485 951.535,222.73 952.129,222.083C952.722,221.435 953.504,221.112 954.475,221.112ZM920.499,297.314C926.539,297.314 931.932,295.723 936.678,292.541C941.424,289.359 945.145,284.991 947.841,279.436C950.538,273.882 951.886,267.599 951.886,260.588C951.886,253.901 950.538,247.834 947.841,242.387C945.145,236.94 941.424,232.626 936.678,229.444C931.932,226.262 926.539,224.671 920.499,224.671C914.567,224.671 909.228,226.208 904.482,229.282C899.736,232.356 895.988,236.59 893.238,241.983C890.488,247.375 889.112,253.577 889.112,260.588C889.112,267.599 890.461,273.882 893.157,279.436C895.854,284.991 899.575,289.359 904.32,292.541C909.066,295.723 914.459,297.314 920.499,297.314Z" style="fill-rule:nonzero;"/>
                    <path d="M1021.29,218.523C1028.09,218.523 1033.62,219.872 1037.88,222.568C1042.14,225.264 1045.26,228.932 1047.26,233.57C1049.26,238.207 1050.25,243.385 1050.25,249.101L1050.25,298.608C1050.25,299.471 1049.93,300.226 1049.28,300.873C1048.63,301.52 1047.88,301.844 1047.02,301.844C1046.05,301.844 1045.26,301.52 1044.67,300.873C1044.08,300.226 1043.78,299.471 1043.78,298.608L1043.78,249.748C1043.78,245.11 1043,240.904 1041.43,237.129C1039.87,233.354 1037.39,230.334 1033.99,228.069C1030.6,225.804 1026.15,224.671 1020.65,224.671C1015.9,224.671 1011.26,225.804 1006.73,228.069C1002.2,230.334 998.454,233.354 995.488,237.129C992.522,240.904 991.039,245.11 991.039,249.748L991.039,298.608C991.039,299.471 990.715,300.226 990.068,300.873C989.421,301.52 988.666,301.844 987.803,301.844C986.832,301.844 986.05,301.52 985.457,300.873C984.864,300.226 984.567,299.471 984.567,298.608L984.567,224.348C984.567,223.485 984.891,222.73 985.538,222.083C986.185,221.435 986.94,221.112 987.803,221.112C988.774,221.112 989.556,221.435 990.149,222.083C990.742,222.73 991.039,223.485 991.039,224.348L991.039,240.203L986.994,247.969C986.994,244.086 988.019,240.365 990.068,236.805C992.117,233.246 994.814,230.091 998.157,227.341C1001.5,224.59 1005.2,222.433 1009.24,220.869C1013.28,219.305 1017.3,218.523 1021.29,218.523Z" style="fill-rule:nonzero;"/>
                    <path d="M1116.26,288.901C1115.51,287.607 1115.16,286.555 1115.21,285.746C1115.27,284.937 1115.67,284.263 1116.42,283.724C1116.96,283.184 1117.69,282.942 1118.61,282.996C1119.53,283.05 1120.31,283.454 1120.95,284.209C1123.76,288.2 1127.35,291.436 1131.71,293.916C1136.08,296.397 1141.23,297.637 1147.16,297.637C1150.72,297.637 1154.15,297.044 1157.44,295.858C1160.73,294.671 1163.42,292.892 1165.53,290.519C1167.63,288.146 1168.68,285.234 1168.68,281.782C1168.68,278.115 1167.66,275.176 1165.61,272.965C1163.56,270.754 1160.92,269.001 1157.68,267.707C1154.44,266.412 1151.05,265.334 1147.49,264.471C1143.71,263.5 1140.13,262.395 1136.73,261.154C1133.33,259.914 1130.34,258.35 1127.75,256.463C1125.16,254.575 1123.11,252.337 1121.6,249.748C1120.09,247.16 1119.34,244.086 1119.34,240.526C1119.34,236.32 1120.47,232.545 1122.73,229.201C1125,225.858 1128.18,223.242 1132.28,221.355C1136.38,219.467 1141.12,218.523 1146.52,218.523C1149.11,218.523 1151.86,218.847 1154.77,219.494C1157.68,220.141 1160.59,221.247 1163.5,222.811C1166.42,224.375 1169.11,226.559 1171.59,229.363C1172.46,230.01 1172.86,230.792 1172.81,231.709C1172.75,232.626 1172.35,233.462 1171.59,234.217C1170.95,234.648 1170.25,234.864 1169.49,234.864C1168.74,234.864 1168.09,234.54 1167.55,233.893C1164.75,230.765 1161.48,228.446 1157.76,226.936C1154.04,225.426 1150.08,224.671 1145.87,224.671C1142.31,224.671 1138.99,225.264 1135.92,226.451C1132.85,227.637 1130.34,229.39 1128.4,231.709C1126.45,234.028 1125.48,236.967 1125.48,240.526C1125.7,243.87 1126.86,246.62 1128.96,248.778C1131.07,250.935 1133.87,252.714 1137.38,254.117C1140.88,255.519 1144.85,256.813 1149.27,257.999C1152.83,258.862 1156.14,259.86 1159.22,260.993C1162.29,262.125 1164.99,263.554 1167.31,265.28C1169.62,267.006 1171.46,269.163 1172.81,271.751C1174.15,274.34 1174.83,277.576 1174.83,281.459C1174.83,285.989 1173.62,289.899 1171.19,293.188C1168.76,296.478 1165.42,299.013 1161.16,300.792C1156.9,302.572 1152.02,303.462 1146.52,303.462C1140.91,303.462 1135.52,302.329 1130.34,300.064C1125.16,297.799 1120.47,294.078 1116.26,288.901Z" style="fill-rule:nonzero;"/>
                    <path d="M1188.58,220.465L1226.12,220.465C1226.98,220.465 1227.71,220.788 1228.3,221.435C1228.89,222.083 1229.19,222.784 1229.19,223.539C1229.19,224.402 1228.89,225.13 1228.3,225.723C1227.71,226.316 1226.98,226.613 1226.12,226.613L1188.58,226.613C1187.83,226.613 1187.12,226.289 1186.48,225.642C1185.83,224.995 1185.51,224.294 1185.51,223.539C1185.51,222.676 1185.83,221.948 1186.48,221.355C1187.12,220.761 1187.83,220.465 1188.58,220.465ZM1205.08,196.682C1206.05,196.682 1206.84,197.006 1207.43,197.653C1208.02,198.3 1208.32,199.055 1208.32,199.918L1208.32,284.209C1208.32,287.768 1208.78,290.384 1209.69,292.056C1210.61,293.728 1211.77,294.806 1213.17,295.292C1214.58,295.777 1215.92,296.02 1217.22,296.02C1217.97,296.02 1218.62,295.912 1219.16,295.696C1219.7,295.48 1220.35,295.372 1221.1,295.372C1221.86,295.372 1222.5,295.669 1223.04,296.262C1223.58,296.855 1223.85,297.53 1223.85,298.285C1223.85,299.255 1223.23,300.091 1221.99,300.792C1220.75,301.493 1219.21,301.844 1217.38,301.844C1216.73,301.844 1215.57,301.817 1213.9,301.763C1212.23,301.709 1210.45,301.224 1208.56,300.307C1206.67,299.39 1205.08,297.718 1203.79,295.292C1202.5,292.865 1201.85,289.278 1201.85,284.533L1201.85,199.918C1201.85,199.055 1202.17,198.3 1202.82,197.653C1203.47,197.006 1204.22,196.682 1205.08,196.682Z" style="fill-rule:nonzero;"/>
                    <path d="M1282.74,303.462C1274.65,303.462 1267.51,301.736 1261.31,298.285C1255.1,294.833 1250.22,289.953 1246.66,283.643C1243.1,277.333 1241.32,269.918 1241.32,261.397C1241.32,252.337 1243.08,244.625 1246.58,238.261C1250.09,231.898 1254.62,227.017 1260.17,223.62C1265.73,220.222 1271.63,218.523 1277.89,218.523C1282.42,218.523 1286.84,219.251 1291.15,220.707C1295.47,222.164 1299.33,224.429 1302.72,227.503C1306.12,230.576 1308.87,234.405 1310.97,238.989C1313.08,243.573 1314.24,249.047 1314.45,255.411C1314.45,256.274 1314.13,257.056 1313.48,257.757C1312.83,258.458 1312.08,258.808 1311.22,258.808L1245.21,258.808L1244.24,252.661L1309.44,252.661L1307.82,254.117L1307.82,251.204C1307.28,245.488 1305.47,240.688 1302.4,236.805C1299.33,232.922 1295.63,229.983 1291.32,227.988C1287,225.993 1282.53,224.995 1277.89,224.995C1274.65,224.995 1271.26,225.723 1267.69,227.179C1264.14,228.635 1260.85,230.846 1257.83,233.812C1254.81,236.778 1252.35,240.526 1250.46,245.056C1248.58,249.587 1247.63,254.872 1247.63,260.912C1247.63,267.491 1248.95,273.531 1251.6,279.032C1254.24,284.533 1258.18,288.955 1263.41,292.298C1268.64,295.642 1275.08,297.314 1282.74,297.314C1286.41,297.314 1289.86,296.694 1293.1,295.453C1296.33,294.213 1299.24,292.568 1301.83,290.519C1304.42,288.469 1306.52,286.258 1308.14,283.886C1309.01,282.915 1309.92,282.429 1310.89,282.429C1311.65,282.429 1312.3,282.726 1312.83,283.319C1313.37,283.912 1313.64,284.587 1313.64,285.342C1313.64,286.097 1313.43,286.744 1313,287.283C1309.65,291.597 1305.37,295.372 1300.13,298.608C1294.9,301.844 1289.11,303.462 1282.74,303.462Z" style="fill-rule:nonzero;"/>
                    <path d="M1342.77,298.608C1342.77,299.471 1342.44,300.226 1341.79,300.873C1341.15,301.52 1340.39,301.844 1339.53,301.844C1338.56,301.844 1337.78,301.52 1337.18,300.873C1336.59,300.226 1336.29,299.471 1336.29,298.608L1336.29,221.759C1336.29,220.896 1336.62,220.141 1337.26,219.494C1337.91,218.847 1338.67,218.523 1339.53,218.523C1340.5,218.523 1341.28,218.847 1341.88,219.494C1342.47,220.141 1342.77,220.896 1342.77,221.759L1342.77,298.608ZM1339.53,207.522C1337.8,207.522 1336.43,207.036 1335.4,206.066C1334.38,205.095 1333.87,203.855 1333.87,202.345L1333.87,201.05C1333.87,199.54 1334.41,198.3 1335.48,197.329C1336.56,196.358 1337.96,195.873 1339.69,195.873C1341.2,195.873 1342.47,196.358 1343.49,197.329C1344.52,198.3 1345.03,199.54 1345.03,201.05L1345.03,202.345C1345.03,203.855 1344.52,205.095 1343.49,206.066C1342.47,207.036 1341.15,207.522 1339.53,207.522Z" style="fill-rule:nonzero;"/>
                    <path d="M1406.35,218.523C1413.14,218.523 1418.67,219.872 1422.93,222.568C1427.19,225.264 1430.32,228.932 1432.31,233.57C1434.31,238.207 1435.31,243.385 1435.31,249.101L1435.31,298.608C1435.31,299.471 1434.98,300.226 1434.34,300.873C1433.69,301.52 1432.93,301.844 1432.07,301.844C1431.1,301.844 1430.32,301.52 1429.73,300.873C1429.13,300.226 1428.84,299.471 1428.84,298.608L1428.84,249.748C1428.84,245.11 1428.05,240.904 1426.49,237.129C1424.93,233.354 1422.44,230.334 1419.05,228.069C1415.65,225.804 1411.2,224.671 1405.7,224.671C1400.95,224.671 1396.32,225.804 1391.79,228.069C1387.26,230.334 1383.51,233.354 1380.54,237.129C1377.58,240.904 1376.09,245.11 1376.09,249.748L1376.09,298.608C1376.09,299.471 1375.77,300.226 1375.12,300.873C1374.48,301.52 1373.72,301.844 1372.86,301.844C1371.89,301.844 1371.11,301.52 1370.51,300.873C1369.92,300.226 1369.62,299.471 1369.62,298.608L1369.62,224.348C1369.62,223.485 1369.94,222.73 1370.59,222.083C1371.24,221.435 1372,221.112 1372.86,221.112C1373.83,221.112 1374.61,221.435 1375.2,222.083C1375.8,222.73 1376.09,223.485 1376.09,224.348L1376.09,240.203L1372.05,247.969C1372.05,244.086 1373.07,240.365 1375.12,236.805C1377.17,233.246 1379.87,230.091 1383.21,227.341C1386.56,224.59 1390.25,222.433 1394.29,220.869C1398.34,219.305 1402.36,218.523 1406.35,218.523Z" style="fill-rule:nonzero;"/>
                </g>
            </g>
        </g>
    </g>
    <defs>
        <radialGradient id="_Radial1" cx="0" cy="0" r="1" gradientUnits="userSpaceOnUse" gradientTransform="matrix(61.6779,0,0,64.9559,458.99,340.022)"><stop offset="0" style="stop-color:black;stop-opacity:1"/><stop offset="0.66" style="stop-color:rgb(0,17,4);stop-opacity:1"/><stop offset="1" style="stop-color:rgb(0,121,29);stop-opacity:1"/></radialGradient>
    </defs>
</svg>
